<svg id="_0138_password" xmlns="http://www.w3.org/2000/svg" viewBox="0 0 500 500" data-imageid="authentication-2-81" imageName="Authentication 2" class="illustrations_image" style="width: 188px;"><defs><style>.cls-1_authentication-2-81{opacity:.45;}.cls-1_authentication-2-81,.cls-2_authentication-2-81,.cls-3_authentication-2-81,.cls-4_authentication-2-81{fill:none;}.cls-5_authentication-2-81{fill:#fff;}.cls-6_authentication-2-81{fill:#f4a28c;}.cls-2_authentication-2-81{opacity:.46;}.cls-7_authentication-2-81{fill:#a5a5a5;}.cls-8_authentication-2-81{fill:#e6e6e6;}.cls-3_authentication-2-81{opacity:.08;}.cls-4_authentication-2-81{opacity:.12;}.cls-9_authentication-2-81{fill:#24285b;}.cls-10_authentication-2-81{fill:#000001;}.cls-11_authentication-2-81{fill:#ffd200;}.cls-12_authentication-2-81{fill:#68e1fd;}</style></defs><g id="bg_authentication-2-81" class="cls-1_authentication-2-81"><path class="cls-8_authentication-2-81" d="m185.28,53.8C70.42,47-14.25,175.81,28.18,295.93c7.24,20.49,17.97,39.63,33.26,56.12,94.11,101.46,295.71,67.16,358.33,14.29,62.63-52.87,88.31-213.09,32.1-263.56-69.94-62.8-162.32-42.8-266.59-48.97Z"/></g><g id="hand_phone_authentication-2-81"><polygon class="cls-6_authentication-2-81" points="270.87 335.06 324.99 400.28 397.17 319.24 339.24 268.36 270.87 335.06"/><polygon class="cls-12_authentication-2-81 targetColor" points="300.17 384.31 384.87 308.44 482.94 392 365.22 471.27 300.17 384.31" style="fill: rgb(104, 225, 253);"/><g class="cls-3_authentication-2-81"><polygon class="cls-10_authentication-2-81" points="306.66 314.96 412.85 439.2 365.22 471.27 300.17 384.31 306.92 378.54 273.16 337.82 306.66 314.96"/></g><path class="cls-6_authentication-2-81" d="m124.75,254.92s57.12,79.37,111.71,82.41c54.59,3.04,83.79.3,106.47-52.72l-218.18-29.69Z"/><g class="cls-3_authentication-2-81"><path class="cls-10_authentication-2-81" d="m124.75,254.92s57.12,79.37,111.71,82.41c54.59,3.04,83.79.3,106.47-52.72l-218.18-29.69Z"/></g><rect class="cls-8_authentication-2-81" x="140.57" y="28.73" width="159.6" height="286.23"/><rect class="cls-5_authentication-2-81" x="153.77" y="61.36" width="132.1" height="201.44"/><circle class="cls-7_authentication-2-81" cx="220.85" cy="288.6" r="15.62"/><g class="cls-4_authentication-2-81"><rect class="cls-10_authentication-2-81" x="206.86" y="39.92" width="44.75" height="6.53"/></g><circle class="cls-5_authentication-2-81" cx="190.66" cy="43.89" r="7.29"/><g class="cls-3_authentication-2-81"><path class="cls-10_authentication-2-81" d="m175.75,254.21s10.12,18.14-2.22,23.76c-12.34,5.62-32.96-3.52-32.96-3.52v-13.39l35.18-6.85Z"/></g><g class="cls-3_authentication-2-81"><path class="cls-10_authentication-2-81" d="m172.86,202.33s11.36,25.83-.98,31.45c-12.34,5.62-31.32-4.16-31.32-4.16v-13.39l32.3-13.9Z"/></g><g class="cls-3_authentication-2-81"><path class="cls-10_authentication-2-81" d="m172.86,178.29s9.68,20.6-2.65,26.22c-12.34,5.62-29.64,1.07-29.64,1.07v-13.39l32.3-13.9Z"/></g><path class="cls-6_authentication-2-81" d="m132.25,147.65s-24.31,32.89,0,38.97c24.31,6.08,50.16,7.14,38.31-21.12-11.85-28.26-38.31-17.85-38.31-17.85Z"/><path class="cls-6_authentication-2-81" d="m132.25,182.21s-24.31,32.89,0,38.97c24.31,6.08,46.9,7.75,39.96-22.1-4.84-20.81-39.96-16.87-39.96-16.87Z"/><path class="cls-6_authentication-2-81" d="m132.25,219.87s-24.31,32.89,0,38.97c24.31,6.08,43.39,16,44.78-13.88.94-20.18-44.78-25.09-44.78-25.09Z"/><g class="cls-2_authentication-2-81"><path class="cls-5_authentication-2-81" d="m150.15,160.91l-2.17,16.25c-.29,2.14,1.22,4.11,3.37,4.38l5.26.67c4.53.58,8.77-2.33,9.86-6.77l1.34-5.48c1.19-4.85-1.81-9.74-6.67-10.87l-6.23-1.46c-2.24-.52-4.45,1-4.75,3.28Z"/></g><g class="cls-3_authentication-2-81"><path class="cls-10_authentication-2-81" d="m121.81,169.91s-1.55,6.65.9,9.92h139.28v-37.88l-140.18,27.95Z"/></g><circle class="cls-11_authentication-2-81" cx="221.13" cy="218.98" r="25.98"/><path class="cls-5_authentication-2-81" d="m220.22,230.77c-.43,0-.85-.19-1.13-.52l-8.75-10.08c-.54-.63-.48-1.57.15-2.12.63-.54,1.57-.48,2.12.15l7.42,8.55,10.69-16.83c.45-.7,1.37-.91,2.07-.46.7.44.91,1.37.46,2.07l-11.76,18.53c-.25.4-.68.66-1.16.69-.04,0-.07,0-.11,0Z"/><path class="cls-6_authentication-2-81" d="m320.33,160.35c-.38-6.07-.61-12.13-.55-17.56.14-11.17-10.79-19.64-21.37-16.07-5.38,1.81-9.58,6.32-9.58,15.98,0,19.2,6.02,46.87,9.41,60.94,1.43,5.93,1.81,12.06,1.17,18.13-2.19,20.75-5.7,69.72,9.6,72.97,17.75,3.78,60.79-2.47,27.09-74.24-8.89-18.93-14.46-39.28-15.78-60.15Z"/><g class="cls-2_authentication-2-81"><path class="cls-5_authentication-2-81" d="m150.8,238.8l-.42,14.31c-.06,1.89,1.43,3.46,3.32,3.5l4.63.11c3.99.1,7.41-2.82,7.95-6.77l.67-4.88c.59-4.32-2.45-8.29-6.78-8.84l-5.55-.71c-1.99-.25-3.77,1.27-3.83,3.28Z"/></g><g class="cls-2_authentication-2-81"><path class="cls-5_authentication-2-81" d="m148.56,195.51l-2.17,16.25c-.29,2.14,1.22,4.11,3.37,4.38l5.26.67c4.53.58,8.77-2.33,9.86-6.77l1.34-5.48c1.19-4.85-1.81-9.74-6.67-10.87l-6.23-1.46c-2.24-.52-4.45,1-4.75,3.28Z"/></g></g><g id="password_authentication-2-81"><rect class="cls-9_authentication-2-81" x="115.23" y="61.36" width="151.93" height="108.55"/><polygon class="cls-9_authentication-2-81" points="213.76 167.95 219.82 185.73 226.52 167.95 213.76 167.95"/><path class="cls-12_authentication-2-81 targetColor" d="m200.74,93.1h-4.13v-9.66c0-3.28-2.67-5.95-5.96-5.95s-5.96,2.67-5.96,5.95v9.66h-4.13v-9.66c0-5.56,4.52-10.08,10.08-10.08s10.08,4.52,10.08,10.08v9.66Z" style="fill: rgb(104, 225, 253);"/><g class="cls-2_authentication-2-81"><path class="cls-5_authentication-2-81" d="m200.74,93.1h-4.13v-9.66c0-3.28-2.67-5.95-5.96-5.95s-5.96,2.67-5.96,5.95v9.66h-4.13v-9.66c0-5.56,4.52-10.08,10.08-10.08s10.08,4.52,10.08,10.08v9.66Z"/></g><rect class="cls-12_authentication-2-81 targetColor" x="175.23" y="85.72" width="30.86" height="24.6" style="fill: rgb(104, 225, 253);"/><path class="cls-9_authentication-2-81" d="m193.46,94.65c0-1.8-1.46-3.26-3.26-3.26s-3.26,1.46-3.26,3.26c0,.95.41,1.79,1.05,2.39v6.91h4.47v-6.97c.61-.59.99-1.42.99-2.33Z"/><rect class="cls-5_authentication-2-81" x="144.43" y="123.72" width="95.49" height="23.93"/><rect class="cls-11_authentication-2-81" x="215.38" y="123.72" width="24.54" height="23.93"/><circle class="cls-9_authentication-2-81" cx="155.52" cy="135.69" r="3.19"/><circle class="cls-9_authentication-2-81" cx="167.37" cy="135.69" r="3.19"/><circle class="cls-9_authentication-2-81" cx="178.94" cy="135.69" r="3.19"/><circle class="cls-9_authentication-2-81" cx="190.79" cy="135.69" r="3.19"/><circle class="cls-9_authentication-2-81" cx="202.9" cy="135.69" r="3.19"/></g></svg>